<?xml version="1.0" standalone="no"?>
<!DOCTYPE svg PUBLIC "-//W3C//DTD SVG 20010904//EN"
 "http://www.w3.org/TR/2001/REC-SVG-20010904/DTD/svg10.dtd">
<svg version="1.0" xmlns="http://www.w3.org/2000/svg"
 width="500.000000pt" height="500.000000pt" viewBox="0 0 500.000000 500.000000"
 preserveAspectRatio="xMidYMid meet">

<g transform="translate(0.000000,500.000000) scale(0.100000,-0.100000)"
fill="#000000" stroke="none">
<path d="M160 2610 l0 -370 105 0 105 0 0 370 0 370 -105 0 -105 0 0 -370z"/>
<path d="M610 2610 l0 -370 285 0 286 0 -3 83 -3 82 -177 3 -178 2 0 285 0
285 -105 0 -105 0 0 -370z"/>
<path d="M1350 2610 l0 -370 105 0 105 0 0 370 0 370 -105 0 -105 0 0 -370z"/>
<path d="M2027 2953 c-12 -23 -224 -500 -298 -670 l-18 -43 107 0 107 0 26 68
26 67 160 3 160 2 27 -70 28 -70 109 0 109 0 -10 23 c-6 12 -79 177 -163 367
l-153 345 -102 3 -101 3 -14 -28z m158 -293 c20 -52 39 -101 42 -107 4 -10
-17 -13 -86 -13 -50 0 -91 3 -91 7 0 19 86 221 91 215 3 -4 23 -50 44 -102z"/>
<path d="M2720 2610 l0 -370 205 0 c112 0 228 5 257 11 128 27 236 114 276
222 30 78 30 195 1 272 -28 76 -102 155 -177 188 -88 40 -144 47 -363 47
l-199 0 0 -370z m469 167 c76 -50 104 -170 62 -262 -37 -80 -90 -105 -226
-105 l-95 0 0 201 0 201 108 -4 c99 -3 112 -5 151 -31z"/>
<path d="M3910 2953 c-37 -81 -310 -703 -310 -708 0 -3 47 -5 104 -5 l104 0
28 70 27 70 160 -2 159 -3 27 -65 28 -65 108 -3 c100 -2 107 -1 101 15 -4 10
-77 177 -163 371 l-156 352 -102 0 c-101 0 -102 0 -115 -27z m200 -405 c0 -4
-40 -8 -90 -8 -49 0 -90 1 -90 3 0 2 16 43 36 93 20 49 41 100 46 114 9 23 14
15 54 -85 24 -60 44 -113 44 -117z"/>
<path d="M4473 1992 c-30 -5 -63 -48 -63 -84 0 -17 10 -39 25 -53 53 -53 145
-16 145 58 0 52 -49 88 -107 79z m73 -47 c34 -52 -14 -110 -74 -89 -64 23 -46
114 23 114 26 0 39 -6 51 -25z"/>
<path d="M2570 1910 l0 -80 60 0 c33 0 60 4 60 10 0 6 -20 10 -45 10 -41 0
-45 2 -45 25 0 23 4 25 40 25 22 0 40 5 40 10 0 6 -18 10 -40 10 -36 0 -40 3
-40 25 0 23 4 25 45 25 25 0 45 5 45 10 0 6 -27 10 -60 10 l-60 0 0 -80z"/>
<path d="M2790 1910 l0 -80 55 0 c30 0 55 5 55 10 0 6 -20 10 -45 10 l-45 0 0
70 c0 40 -4 70 -10 70 -6 0 -10 -33 -10 -80z"/>
<path d="M2980 1910 l0 -80 60 0 c33 0 60 4 60 10 0 6 -20 10 -45 10 -41 0
-45 2 -45 25 0 23 4 25 40 25 22 0 40 5 40 10 0 6 -18 10 -40 10 -36 0 -40 3
-40 25 0 23 4 25 45 25 25 0 45 5 45 10 0 6 -27 10 -60 10 l-60 0 0 -80z"/>
<path d="M3200 1910 c0 -78 16 -112 22 -47 3 29 6 32 41 35 50 4 48 22 -3 22
-36 0 -40 3 -40 25 0 23 4 25 45 25 25 0 45 5 45 10 0 6 -25 10 -55 10 l-55 0
0 -80z"/>
<path d="M3380 1980 c0 -5 14 -10 30 -10 l30 0 0 -70 c0 -40 4 -70 10 -70 6 0
10 30 10 70 0 68 1 70 24 70 14 0 28 5 31 10 4 6 -20 10 -64 10 -41 0 -71 -4
-71 -10z"/>
<path d="M3600 1910 c0 -47 4 -80 10 -80 6 0 10 16 10 35 l0 35 50 0 50 0 0
-35 c0 -19 5 -35 10 -35 6 0 10 33 10 80 0 78 -16 112 -22 48 -3 -32 -5 -33
-48 -33 -43 0 -45 1 -48 33 -6 64 -22 30 -22 -48z"/>
<path d="M3850 1910 l0 -80 60 0 c33 0 60 4 60 10 0 6 -22 10 -50 10 -47 0
-50 2 -50 25 0 23 4 25 40 25 22 0 40 5 40 10 0 6 -18 10 -40 10 -36 0 -40 3
-40 25 0 23 4 25 45 25 25 0 45 5 45 10 0 6 -25 10 -55 10 l-55 0 0 -80z"/>
<path d="M4060 1910 c0 -64 3 -80 15 -80 9 0 15 9 15 25 0 35 38 33 66 -2 12
-16 26 -25 30 -21 4 5 -1 17 -11 28 -16 18 -16 20 -1 35 23 23 21 72 -3 85
-11 5 -40 10 -65 10 l-46 0 0 -80z m107 44 c10 -26 -11 -49 -46 -52 -30 -3
-31 -2 -31 32 0 34 2 36 35 36 24 0 38 -5 42 -16z"/>
<path d="M4290 1910 c0 -47 4 -80 10 -80 6 0 10 33 10 80 0 47 -4 80 -10 80
-6 0 -10 -33 -10 -80z"/>
<path d="M4670 1939 c0 -78 21 -109 77 -109 45 0 63 30 63 102 0 32 -4 58 -10
58 -5 0 -10 -23 -10 -51 0 -61 -13 -89 -43 -89 -36 0 -47 19 -47 82 0 45 -3
58 -15 58 -11 0 -15 -12 -15 -51z"/>
<path d="M90 1885 l0 -95 1168 2 1167 3 3 93 3 92 -1171 0 -1170 0 0 -95z"/>
</g>
</svg>
